<?xml version="1.0" standalone="no"?>
<!DOCTYPE svg PUBLIC "-//W3C//DTD SVG 1.1//EN" "http://www.w3.org/Graphics/SVG/1.1/DTD/svg11.dtd" >
<svg xmlns="http://www.w3.org/2000/svg" xmlns:xlink="http://www.w3.org/1999/xlink" version="1.1">
<metadata>
Created by FontForge 20190801 at Mon Dec  3 13:18:09 2018
 By Jimmy Wärting
Typeface (c) Franco Fernandez. 2017. All Rights Reserved
</metadata>
<defs>
<font id="Glass" horiz-adv-x="1014" >
  <font-face 
    font-family="Glass"
    font-weight="400"
    font-stretch="normal"
    units-per-em="2048"
    panose-1="2 0 5 0 0 0 0 0 0 0"
    ascent="1638"
    descent="-410"
    x-height="1503"
    cap-height="1505"
    bbox="2 -508 1970 1900"
    underline-thickness="150"
    underline-position="-292"
    unicode-range="U+001D-F002"
  />
<missing-glyph horiz-adv-x="1024" 
d="M100 0v1434h824v-1434h-824zM150 50h724v1334h-724v-1334zM325 1148q31 28 58 43q53 30 112 30q92 0 148 -47.5t56 -127.5q0 -49 -23 -98.5t-87 -129.5q-63 -80 -99 -132t-36 -99q0 -38 24 -133h-32q-35 97 -35 148q0 76 81.5 218t81.5 217q0 57 -33 90t-91 33
q-38 0 -69 -17q-26 -15 -56 -40v45zM389 334l57 58q11 10 20 10q10 0 22 -11l56 -60q9 -11 9 -20q0 -11 -10 -22l-56 -62q-14 -14 -21 -14q-11 0 -20 10l-61 71q-7 9 -7 18q0 10 11 22z" />
    <glyph glyph-name=".notdef" horiz-adv-x="1024" 
d="M100 0v1434h824v-1434h-824zM150 50h724v1334h-724v-1334zM325 1148q31 28 58 43q53 30 112 30q92 0 148 -47.5t56 -127.5q0 -49 -23 -98.5t-87 -129.5q-63 -80 -99 -132t-36 -99q0 -38 24 -133h-32q-35 97 -35 148q0 76 81.5 218t81.5 217q0 57 -33 90t-91 33
q-38 0 -69 -17q-26 -15 -56 -40v45zM389 334l57 58q11 10 20 10q10 0 22 -11l56 -60q9 -11 9 -20q0 -11 -10 -22l-56 -62q-14 -14 -21 -14q-11 0 -20 10l-61 71q-7 9 -7 18q0 10 11 22z" />
    <glyph glyph-name=".null" horiz-adv-x="0" 
 />
    <glyph glyph-name=".null" horiz-adv-x="0" 
 />
    <glyph glyph-name="nonmarkingreturn" horiz-adv-x="508" 
 />
    <glyph glyph-name="space" unicode=" " horiz-adv-x="508" 
 />
    <glyph glyph-name="space" unicode="&#xa0;" horiz-adv-x="508" 
 />
    <glyph glyph-name="exclam" unicode="!" horiz-adv-x="567" 
d="M406 1505v-1065h-246v1065h246zM283 276q65 0 109 -43t44 -108.5t-44 -108.5t-109.5 -43t-107.5 43t-42 108.5t43 108.5t107 43z" />
    <glyph glyph-name="quotedbl" unicode="&#x22;" horiz-adv-x="705" 
d="M102 1540l228 -41l-109 -551h-94zM453 1540l227 -41l-109 -551h-94z" />
    <glyph glyph-name="numbersign" unicode="#" horiz-adv-x="1448" 
d="M1237 1505l-70 -393h244v-199h-278l-60 -331h242v-201h-275l-67 -381h-246l66 381h-297l-68 -381h-248l70 381h-248v201h283l59 331h-246v199h277l71 393h244l-67 -393h297l71 393h246zM887 913h-299l-58 -331h297z" />
    <glyph glyph-name="dollar" unicode="$" horiz-adv-x="1204" 
d="M723 1780v-256q223 -31 377 -152l-135 -211q-164 135 -375 135q-117 0 -183.5 -50t-66.5 -150q0 -84 65.5 -128t247.5 -81q277 -60 391.5 -163t114.5 -282q0 -186 -116.5 -310t-319.5 -150v-246h-207v241q-287 25 -473 193l139 213q78 -80 196 -127t238 -47
q134 0 210.5 55t76.5 156q0 84 -72.5 133t-250.5 86q-275 59 -386.5 164.5t-111.5 279.5q0 183 117.5 302.5t316.5 142.5v252h207z" />
    <glyph glyph-name="percent" unicode="%" horiz-adv-x="1812" 
d="M1513 1505l-974 -1505h-240l975 1505h239zM428 1532q160 0 266.5 -109.5t106.5 -273.5t-106.5 -271.5t-266.5 -107.5q-162 0 -267.5 107.5t-105.5 271.5q0 166 105.5 274.5t267.5 108.5zM428 1352q-82 0 -133 -56.5t-51 -146.5q0 -88 51 -144.5t133 -56.5q80 0 132 56.5
t52 144.5t-52 145.5t-132 57.5zM1384.5 733q161.5 0 268 -107.5t106.5 -273.5q0 -164 -106.5 -270.5t-268 -106.5t-267 106.5t-105.5 270.5q0 166 105.5 273.5t267 107.5zM1384.5 557q-79.5 0 -132 -58.5t-52.5 -146.5q0 -86 52.5 -143t132 -57t133 57t53.5 143
q0 88 -53.5 146.5t-133 58.5z" />
    <glyph glyph-name="ampersand" unicode="&#x26;" horiz-adv-x="1427" 
d="M594 1532q174 0 279.5 -95.5t105.5 -244.5q0 -53 -17.5 -101.5t-39 -81t-64.5 -70.5t-73.5 -58.5t-86.5 -57.5l277 -309l168 211h284l-297 -385l308 -340h-316l-145 164q-195 -184 -442 -184q-203 0 -341.5 112.5t-138.5 306.5q0 146 74 240t246 201q-162 184 -162 348
q0 153 104.5 248.5t276.5 95.5zM526 674l-20 22q-105 -71 -152 -131.5t-47 -148.5q0 -101 67.5 -161t172.5 -60q147 0 278 139zM444 1178q0 -93 121 -217q99 61 141 107t42 113.5t-41 107.5t-109 40q-70 0 -112 -40t-42 -111z" />
    <glyph glyph-name="quotesingle" unicode="'" horiz-adv-x="352" 
d="M102 1540l228 -41l-109 -551h-94z" />
    <glyph glyph-name="parenleft" unicode="(" horiz-adv-x="625" 
d="M399 1440l189 -133q-121 -146 -192.5 -313t-71.5 -402.5t71.5 -402t192.5 -312.5l-189 -133q-307 377 -307 848t307 848z" />
    <glyph glyph-name="parenright" unicode=")" horiz-adv-x="625" 
d="M225 1440q310 -373 310 -848t-310 -848l-186 133q121 146 191.5 311.5t70.5 403t-70.5 403.5t-191.5 312z" />
    <glyph glyph-name="asterisk" unicode="*" horiz-adv-x="862" 
d="M520 1503l-12 -262l248 92l55 -166l-254 -71l162 -207l-141 -101l-146 207l-145 -207l-140 101l162 207l-256 71l56 166l247 -92l-12 262h176z" />
    <glyph glyph-name="plus" unicode="+" horiz-adv-x="1020" 
d="M621 1149v-320h321v-225h-321v-321h-226v321h-319v225h319v320h226z" />
    <glyph glyph-name="comma" unicode="," horiz-adv-x="403" 
d="M160 299q69 0 115.5 -46t46.5 -118q0 -51 -31 -96l-182 -342h-9v590q27 12 60 12z" />
    <glyph glyph-name="hyphen" unicode="-" horiz-adv-x="889" 
d="M809 643v-227h-729v227h729z" />
    <glyph glyph-name="hyphen" unicode="&#xad;" horiz-adv-x="889" 
d="M809 643v-227h-729v227h729z" />
    <glyph glyph-name="period" unicode="." horiz-adv-x="475" 
d="M237.5 303q69.5 0 115.5 -45t46 -116.5t-46 -116.5t-115.5 -45t-115.5 45t-46 116.5t46 116.5t115.5 45z" />
    <glyph glyph-name="slash" unicode="/" horiz-adv-x="1016" 
d="M1006 1503l-744 -1503h-252l748 1503h248z" />
    <glyph glyph-name="zero" unicode="0" horiz-adv-x="1212" 
d="M606 1532q252 0 393.5 -209t141.5 -569.5t-141.5 -570.5t-393.5 -210t-393 210t-141 570.5t141 569.5t393 209zM606.5 1311q-141.5 0 -212 -148.5t-70.5 -408.5q0 -262 70.5 -410.5t212 -148.5t212 148.5t70.5 410.5q0 260 -70.5 408.5t-212 148.5z" />
    <glyph glyph-name="one" unicode="1" horiz-adv-x="788" 
d="M631 1532v-1532h-248v1098l-246 -140l-106 224l592 350h8z" />
    <glyph glyph-name="two" unicode="2" horiz-adv-x="1090" 
d="M535 1532q213 0 344 -128t131 -333q0 -127 -41 -230.5t-131 -219.5l-303 -398h491v-223h-944v12l547 738q76 100 103.5 168.5t27.5 158.5q0 107 -63.5 169.5t-161.5 62.5q-199 0 -242 -240l-225 53q79 410 467 410z" />
    <glyph glyph-name="three" unicode="3" horiz-adv-x="1073" 
d="M537 1532q204 0 331 -124t127 -316q0 -218 -188 -314q106 -45 167.5 -132t61.5 -210q0 -207 -133 -335t-352 -128q-389 0 -496 396l226 57q61 -229 268 -229q106 0 171.5 65.5t65.5 175.5q0 103 -70.5 169.5t-183.5 66.5h-161v207h166q88 2 149.5 57t61.5 153.5
t-59.5 158t-153.5 59.5q-181 0 -236 -201l-217 90q53 156 168 245t287 89z" />
    <glyph glyph-name="four" unicode="4" horiz-adv-x="1161" 
d="M930 1522v-1063h186v-205h-186v-254h-248v254h-676v8l914 1260h10zM692 879l-303 -424h303v424z" />
    <glyph glyph-name="five" unicode="5" horiz-adv-x="1110" 
d="M965 1505v-223h-566v-377q82 35 168 35q217 0 353.5 -128t136.5 -359q0 -209 -134.5 -344.5t-355.5 -135.5q-374 0 -491 332l211 101q57 -209 264 -209q113 0 184.5 74.5t71.5 191.5q0 119 -70.5 190.5t-185.5 71.5q-131 0 -238 -86l-163 76v790h815z" />
    <glyph glyph-name="six" unicode="6" horiz-adv-x="1135" 
d="M907 1505l-342 -530q211 -2 358.5 -144.5t147.5 -357.5q0 -217 -147.5 -358.5t-358.5 -141.5t-357.5 141.5t-146.5 358.5q0 184 113 320l455 712h278zM565 754q-106 0 -178 -79t-72 -202q0 -125 71 -201.5t179.5 -76.5t181 76.5t72.5 201.5q0 123 -72.5 202t-181.5 79z
" />
    <glyph glyph-name="seven" unicode="7" horiz-adv-x="1110" 
d="M1092 1505v-12l-742 -1493h-270l645 1278h-672v227h1039z" />
    <glyph glyph-name="eight" unicode="8" horiz-adv-x="1135" 
d="M561.5 1532q186.5 0 316.5 -118t130 -298q0 -102 -47.5 -185t-126.5 -134q106 -56 170.5 -152t64.5 -211q0 -198 -148.5 -329.5t-359.5 -131.5t-357.5 130t-146.5 331q0 117 62.5 212t169.5 149q-172 108 -172 321q0 180 129 298t315.5 118zM561.5 676
q-106.5 0 -179.5 -70.5t-73 -175t73 -173.5t179.5 -69t180 69t73.5 173.5t-73.5 175t-180 70.5zM561 1317q-90 0 -151.5 -60.5t-61.5 -152.5q0 -94 61.5 -156.5t151.5 -62.5t152.5 62.5t62.5 156.5q0 92 -62.5 152.5t-152.5 60.5z" />
    <glyph glyph-name="nine" unicode="9" horiz-adv-x="1135" 
d="M569 1532q209 0 355.5 -141.5t146.5 -358.5q0 -172 -96 -301l-2 -4l-467 -727h-281l342 530q-211 0 -358.5 143.5t-147.5 358.5q0 217 147.5 358.5t360.5 141.5zM569.5 1311q-108.5 0 -181.5 -77t-73 -202t73 -202.5t181 -77.5q107 0 178.5 77.5t71.5 202.5t-70.5 202
t-179 77z" />
    <glyph glyph-name="colon" unicode=":" horiz-adv-x="457" 
d="M229.5 287q65.5 0 109.5 -43t44 -111q0 -65 -44 -109t-109.5 -44t-109.5 44t-44 109.5t44 109.5t109.5 44zM229.5 1053q65.5 0 109.5 -44t44 -109.5t-44 -110t-109.5 -44.5t-109.5 44.5t-44 110t44 109.5t109.5 44z" />
    <glyph glyph-name="semicolon" unicode=";" horiz-adv-x="457" 
d="M178 287q70 0 116 -46t46 -116q0 -53 -31 -98l-182 -342h-8v591q31 11 59 11zM229.5 1053q65.5 0 109.5 -44t44 -109.5t-44 -110t-109.5 -44.5t-109.5 44.5t-44 110t44 109.5t109.5 44z" />
    <glyph glyph-name="semicolon" unicode="&#x37e;" horiz-adv-x="457" 
d="M178 287q70 0 116 -46t46 -116q0 -53 -31 -98l-182 -342h-8v591q31 11 59 11zM229.5 1053q65.5 0 109.5 -44t44 -109.5t-44 -110t-109.5 -44.5t-109.5 44.5t-44 110t44 109.5t109.5 44z" />
    <glyph glyph-name="less" unicode="&#x3c;" horiz-adv-x="754" 
d="M717 1102l-377 -393l377 -394h-309l-369 390v8l369 389h309z" />
    <glyph glyph-name="equal" unicode="=" horiz-adv-x="1020" 
d="M942 571v-225h-866v225h866zM942 1083v-225h-866v225h866z" />
    <glyph glyph-name="greater" unicode="&#x3e;" horiz-adv-x="754" 
d="M346 1102l371 -389v-8l-371 -390h-307l375 394l-375 393h307z" />
    <glyph glyph-name="question" unicode="?" horiz-adv-x="1038" 
d="M504 1532q203 0 333 -120t130 -300q0 -98 -35 -173t-85 -120t-100.5 -85t-85 -93t-34.5 -123v-78h-248v111q0 88 33.5 155.5t82 110.5t97.5 83t83 92t34 118q0 92 -58.5 145.5t-148.5 53.5q-187 0 -219 -195l-244 41q82 377 465 377zM503.5 276q65.5 0 108.5 -43
t43 -108.5t-43 -108.5t-108.5 -43t-108.5 43t-43 108.5t43 108.5t108.5 43z" />
    <glyph glyph-name="at" unicode="@" horiz-adv-x="1778" 
d="M887 1315q368 0 598.5 -224.5t230.5 -582.5q0 -209 -95 -336t-265 -127q-174 0 -230 127l-4 8q-106 -135 -291 -135q-169 0 -277 127t-108 320q0 194 108 321t277 127q185 0 271 -115l10 99h186v-623q0 -88 82 -88q76 0 118 80t42 215q0 283 -179 461t-474 178
q-287 0 -468 -184.5t-181 -469t177 -467t459 -182.5q142 0 265 50l47 -158q-144 -58 -312 -58q-358 0 -586.5 228.5t-228.5 587t232.5 590t595.5 231.5zM883 758q-101 0 -164.5 -73t-63.5 -193.5t63.5 -192.5t164.5 -72q127 0 209 119v293q-84 119 -209 119z" />
    <glyph glyph-name="A" unicode="A" horiz-adv-x="1454" 
d="M731 1532l709 -1532h-279l-119 272h-630l-119 -272h-279l709 1532h8zM727 1006l-227 -523h454z" />
    <glyph glyph-name="B" unicode="B" horiz-adv-x="1370" 
d="M715 1505q225 0 349 -106.5t124 -294.5q0 -109 -48 -186.5t-116 -116.5q287 -88 287 -371q0 -201 -138.5 -315.5t-357.5 -114.5h-655v1505h555zM768 659h-354v-426h370q125 0 197 55.5t72 158t-73 157.5t-212 55zM682 1272h-268v-398h282q109 0 171.5 55.5t62.5 143.5
q0 94 -63.5 146.5t-184.5 52.5z" />
    <glyph glyph-name="C" unicode="C" horiz-adv-x="1395" 
d="M829 1532q320 0 537 -223l-162 -185q-153 172 -375 172q-225 0 -365 -152.5t-140 -391.5q0 -238 140 -390.5t365 -152.5q232 0 383 180l160 -188q-207 -228 -543 -228q-333 0 -549.5 221.5t-216.5 557.5q0 338 216.5 559t549.5 221z" />
    <glyph glyph-name="D" unicode="D" horiz-adv-x="1505" 
d="M625 1505q385 0 600 -197.5t215 -554t-214 -555t-601 -198.5h-465v1505h465zM618 1268h-202v-1032h202q273 0 418.5 135t145.5 383q0 245 -145.5 379.5t-418.5 134.5z" />
    <glyph glyph-name="E" unicode="E" horiz-adv-x="1196" 
d="M1110 1505v-235h-694v-396h606v-223h-606v-415h600l110 -236h-966v1505h950z" />
    <glyph glyph-name="F" unicode="F" horiz-adv-x="1118" 
d="M1079 1505v-235h-663v-416h557v-225h-557v-629h-256v1505h919z" />
    <glyph glyph-name="G" unicode="G" horiz-adv-x="1611" 
d="M849 750h690q0 -15 1 -42q3 -71 3 -96q0 -309 -177 -480t-479 -171q-180 0 -321 53t-247 160q-104 106 -159.5 249t-55.5 306q0 166 56.5 306t167.5 247q107 105 251 160t308 55q153 0 289.5 -63t243.5 -193l-174 -131q-74 86 -167 128t-188 42q-238 0 -388.5 -152.5
t-150.5 -396.5q0 -248 150.5 -402.5t390.5 -154.5q184 0 301 95t117 259v21h-302z" />
    <glyph glyph-name="H" unicode="H" horiz-adv-x="1518" 
d="M1356 1505v-1505h-254v653h-686v-653h-256v1505h256v-618h686v618h254z" />
    <glyph glyph-name="I" unicode="I" horiz-adv-x="575" 
d="M416 1505v-1505h-256v1505h256z" />
    <glyph glyph-name="J" unicode="J" horiz-adv-x="1133" 
d="M995 1505v-1067q0 -209 -132 -337t-343 -128q-203 0 -342 135.5t-139 374.5h250q0 -131 59.5 -202.5t163.5 -71.5q106 0 166.5 65.5t60.5 178.5v1052h256z" />
    <glyph glyph-name="K" unicode="K" horiz-adv-x="1403" 
d="M1280 1505l-438 -725l544 -780h-309l-379 551l-342 -551h-196v1505h256v-989l563 989h301z" />
    <glyph glyph-name="L" unicode="L" horiz-adv-x="1116" 
d="M416 1505v-1278h532l150 -227h-938v1505h256z" />
    <glyph glyph-name="M" unicode="M" horiz-adv-x="1802" 
d="M1640 1532v-1532h-256v739l-475 -755h-16l-477 755v-739h-256v1532h8l733 -1120l731 1120h8z" />
    <glyph glyph-name="N" unicode="N" horiz-adv-x="1501" 
d="M1341 1505v-1532h-8l-917 961v-934h-256v1532h8l917 -959v932h256z" />
    <glyph glyph-name="O" unicode="O" horiz-adv-x="1659" 
d="M829.5 1532q329.5 0 547.5 -222.5t218 -557.5q0 -338 -218 -558.5t-548 -220.5q-331 0 -548.5 220.5t-217.5 558.5q0 335 218.5 557.5t548 222.5zM829 1296q-223 0 -364 -153.5t-141 -391t141 -390t364 -152.5q222 0 364 152.5t142 390t-142 391t-364 153.5z" />
    <glyph glyph-name="P" unicode="P" horiz-adv-x="1296" 
d="M719 1505q227 0 376.5 -129t149.5 -358q0 -227 -149.5 -356.5t-376.5 -129.5h-303v-532h-256v1505h559zM694 1282h-278v-526h278q135 0 213 67.5t78 194.5t-79 195.5t-212 68.5z" />
    <glyph glyph-name="Q" unicode="Q" horiz-adv-x="1659" 
d="M829.5 1532q329.5 0 547.5 -222.5t218 -557.5q0 -340 -223 -564l314 -360h-310l-194 225q-164 -80 -353 -80q-331 0 -548.5 220.5t-217.5 558.5q0 335 218.5 557.5t548 222.5zM829 1296q-223 0 -364 -153.5t-141 -391t141 -390t364 -152.5q95 0 187 33l-217 252l180 153
l229 -268q127 149 127 373q0 237 -142 390.5t-364 153.5z" />
    <glyph glyph-name="R" unicode="R" horiz-adv-x="1325" 
d="M698 1505q230 0 381.5 -127t151.5 -350q0 -156 -79 -266.5t-270 -171.5l421 -590h-299l-595 753l3 -200v-553h-254v1505h540zM676 1282h-264v-506h264q137 0 216 64.5t79 187.5q0 121 -80 187.5t-215 66.5z" />
    <glyph glyph-name="S" unicode="S" horiz-adv-x="1214" 
d="M594 1532q303 0 508 -160l-135 -211q-164 135 -375 135q-117 0 -183.5 -50t-66.5 -150q0 -84 65.5 -128t247.5 -81q277 -60 391.5 -163t114.5 -282q0 -213 -148.5 -341t-402.5 -128q-344 0 -565 197l139 213q78 -80 196 -127t238 -47q134 0 210.5 55t76.5 156
q0 84 -72.5 133t-250.5 86q-275 59 -386.5 164.5t-111.5 279.5q0 201 140.5 325t369.5 124z" />
    <glyph glyph-name="T" unicode="T" horiz-adv-x="1341" 
d="M1309 1505v-227h-510v-1278h-256v1278h-510v227h1276z" />
    <glyph glyph-name="U" unicode="U" horiz-adv-x="1415" 
d="M1274 1505v-970q0 -259 -146.5 -410.5t-418.5 -151.5q-275 0 -421.5 150.5t-146.5 411.5v970h256v-954q0 -158 80 -250t232 -92q149 0 229 92t80 250v954h256z" />
    <glyph glyph-name="V" unicode="V" horiz-adv-x="1468" 
d="M1452 1505l-713 -1528h-8l-715 1528h281l438 -985l439 985h278z" />
    <glyph glyph-name="W" unicode="W" horiz-adv-x="1989" 
d="M1970 1505l-600 -1528h-8l-369 910l-366 -910h-9l-602 1528h285l330 -901l358 901h8l359 -901l332 901h282z" />
    <glyph glyph-name="X" unicode="X" horiz-adv-x="1397" 
d="M1352 1505l-473 -741l493 -764h-295l-379 578l-376 -578h-295l493 764l-473 741h297l354 -551l357 551h297z" />
    <glyph glyph-name="Y" unicode="Y" horiz-adv-x="1386" 
d="M1374 1503l-553 -876v-627h-256v623l-553 880h297l383 -622l383 622h299z" />
    <glyph glyph-name="Z" unicode="Z" horiz-adv-x="1200" 
d="M1126 1505v-8l-684 -1270h537l170 -227h-1104v8l688 1270h-655v227h1048z" />
    <glyph glyph-name="bracketleft" unicode="[" horiz-adv-x="653" 
d="M602 1432v-197h-254v-1286h254v-197h-489v1680h489z" />
    <glyph glyph-name="backslash" unicode="\" horiz-adv-x="1016" 
d="M260 1503l746 -1503h-250l-746 1503h250z" />
    <glyph glyph-name="bracketright" unicode="]" horiz-adv-x="664" 
d="M551 1432v-1680h-500v197h264v1286h-264v197h500z" />
    <glyph glyph-name="asciicircum" unicode="^" horiz-adv-x="1085" 
d="M543 1556l506 -610h-224l-282 342l-281 -342h-223z" />
    <glyph glyph-name="underscore" unicode="_" horiz-adv-x="1632" 
d="M1554 0v-225h-1474v225h1474z" />
    <glyph glyph-name="grave" unicode="`" horiz-adv-x="641" 
d="M330 1458l280 -280h-229l-334 280h283z" />
    <glyph glyph-name="a" unicode="a" horiz-adv-x="1454" 
d="M731 1532l709 -1532h-279l-119 272h-630l-119 -272h-279l709 1532h8zM727 1006l-227 -523h454z" />
    <glyph glyph-name="b" unicode="b" horiz-adv-x="1370" 
d="M715 1505q225 0 349 -106.5t124 -294.5q0 -109 -48 -186.5t-116 -116.5q287 -88 287 -371q0 -201 -138.5 -315.5t-357.5 -114.5h-655v1505h555zM768 659h-354v-426h370q125 0 197 55.5t72 158t-73 157.5t-212 55zM682 1272h-268v-398h282q109 0 171.5 55.5t62.5 143.5
q0 94 -63.5 146.5t-184.5 52.5z" />
    <glyph glyph-name="c" unicode="c" horiz-adv-x="1395" 
d="M829 1532q320 0 537 -223l-162 -185q-153 172 -375 172q-225 0 -365 -152.5t-140 -391.5q0 -238 140 -390.5t365 -152.5q232 0 383 180l160 -188q-207 -228 -543 -228q-333 0 -549.5 221.5t-216.5 557.5q0 338 216.5 559t549.5 221z" />
    <glyph glyph-name="d" unicode="d" horiz-adv-x="1505" 
d="M625 1505q385 0 600 -197.5t215 -554t-214 -555t-601 -198.5h-465v1505h465zM618 1268h-202v-1032h202q273 0 418.5 135t145.5 383q0 245 -145.5 379.5t-418.5 134.5z" />
    <glyph glyph-name="e" unicode="e" horiz-adv-x="1196" 
d="M1110 1505v-235h-694v-396h606v-223h-606v-415h600l110 -236h-966v1505h950z" />
    <glyph glyph-name="f" unicode="f" horiz-adv-x="1118" 
d="M1079 1505v-235h-663v-416h557v-225h-557v-629h-256v1505h919z" />
    <glyph glyph-name="g" unicode="g" horiz-adv-x="1611" 
d="M849 750h690q0 -15 1 -42q3 -71 3 -96q0 -309 -177 -480t-479 -171q-180 0 -321 53t-247 160q-104 106 -159.5 249t-55.5 306q0 166 56.5 306t167.5 247q107 105 251 160t308 55q153 0 289.5 -63t243.5 -193l-174 -131q-74 86 -167 128t-188 42q-238 0 -388.5 -152.5
t-150.5 -396.5q0 -248 150.5 -402.5t390.5 -154.5q184 0 301 95t117 259v21h-302z" />
    <glyph glyph-name="h" unicode="h" horiz-adv-x="1518" 
d="M1356 1505v-1505h-254v653h-686v-653h-256v1505h256v-618h686v618h254z" />
    <glyph glyph-name="i" unicode="i" horiz-adv-x="575" 
d="M416 1505v-1505h-256v1505h256z" />
    <glyph glyph-name="j" unicode="j" horiz-adv-x="1133" 
d="M995 1505v-1067q0 -209 -132 -337t-343 -128q-203 0 -342 135.5t-139 374.5h250q0 -131 59.5 -202.5t163.5 -71.5q106 0 166.5 65.5t60.5 178.5v1052h256z" />
    <glyph glyph-name="k" unicode="k" horiz-adv-x="1403" 
d="M1280 1505l-438 -725l544 -780h-309l-379 551l-342 -551h-196v1505h256v-989l563 989h301z" />
    <glyph glyph-name="l" unicode="l" horiz-adv-x="1116" 
d="M416 1505v-1278h532l150 -227h-938v1505h256z" />
    <glyph glyph-name="m" unicode="m" horiz-adv-x="1802" 
d="M1640 1532v-1532h-256v739l-475 -755h-16l-477 755v-739h-256v1532h8l733 -1120l731 1120h8z" />
    <glyph glyph-name="n" unicode="n" horiz-adv-x="1501" 
d="M1341 1505v-1532h-8l-917 961v-934h-256v1532h8l917 -959v932h256z" />
    <glyph glyph-name="o" unicode="o" horiz-adv-x="1659" 
d="M829.5 1532q329.5 0 547.5 -222.5t218 -557.5q0 -338 -218 -558.5t-548 -220.5q-331 0 -548.5 220.5t-217.5 558.5q0 335 218.5 557.5t548 222.5zM829 1296q-223 0 -364 -153.5t-141 -391t141 -390t364 -152.5q222 0 364 152.5t142 390t-142 391t-364 153.5z" />
    <glyph glyph-name="p" unicode="p" horiz-adv-x="1296" 
d="M719 1505q227 0 376.5 -129t149.5 -358q0 -227 -149.5 -356.5t-376.5 -129.5h-303v-532h-256v1505h559zM694 1282h-278v-526h278q135 0 213 67.5t78 194.5t-79 195.5t-212 68.5z" />
    <glyph glyph-name="q" unicode="q" horiz-adv-x="1659" 
d="M829.5 1532q329.5 0 547.5 -222.5t218 -557.5q0 -340 -223 -564l314 -360h-310l-194 225q-164 -80 -353 -80q-331 0 -548.5 220.5t-217.5 558.5q0 335 218.5 557.5t548 222.5zM829 1296q-223 0 -364 -153.5t-141 -391t141 -390t364 -152.5q95 0 187 33l-217 252l180 153
l229 -268q127 149 127 373q0 237 -142 390.5t-364 153.5z" />
    <glyph glyph-name="r" unicode="r" horiz-adv-x="1325" 
d="M698 1505q230 0 381.5 -127t151.5 -350q0 -156 -79 -266.5t-270 -171.5l421 -590h-299l-595 753l3 -200v-553h-254v1505h540zM676 1282h-264v-506h264q137 0 216 64.5t79 187.5q0 121 -80 187.5t-215 66.5z" />
    <glyph glyph-name="s" unicode="s" horiz-adv-x="1214" 
d="M594 1532q303 0 508 -160l-135 -211q-164 135 -375 135q-117 0 -183.5 -50t-66.5 -150q0 -84 65.5 -128t247.5 -81q277 -60 391.5 -163t114.5 -282q0 -213 -148.5 -341t-402.5 -128q-344 0 -565 197l139 213q78 -80 196 -127t238 -47q134 0 210.5 55t76.5 156
q0 84 -72.5 133t-250.5 86q-275 59 -386.5 164.5t-111.5 279.5q0 201 140.5 325t369.5 124z" />
    <glyph glyph-name="t" unicode="t" horiz-adv-x="1341" 
d="M1309 1505v-227h-510v-1278h-256v1278h-510v227h1276z" />
    <glyph glyph-name="u" unicode="u" horiz-adv-x="1415" 
d="M1274 1505v-970q0 -259 -146.5 -410.5t-418.5 -151.5q-275 0 -421.5 150.5t-146.5 411.5v970h256v-954q0 -158 80 -250t232 -92q149 0 229 92t80 250v954h256z" />
    <glyph glyph-name="v" unicode="v" horiz-adv-x="1468" 
d="M1452 1505l-713 -1528h-8l-715 1528h281l438 -985l439 985h278z" />
    <glyph glyph-name="w" unicode="w" horiz-adv-x="1989" 
d="M1970 1505l-600 -1528h-8l-369 910l-366 -910h-9l-602 1528h285l330 -901l358 901h8l359 -901l332 901h282z" />
    <glyph glyph-name="x" unicode="x" horiz-adv-x="1397" 
d="M1352 1505l-473 -741l493 -764h-295l-379 578l-376 -578h-295l493 764l-473 741h297l354 -551l357 551h297z" />
    <glyph glyph-name="y" unicode="y" horiz-adv-x="1386" 
d="M1374 1503l-553 -876v-627h-256v623l-553 880h297l383 -622l383 622h299z" />
    <glyph glyph-name="z" unicode="z" horiz-adv-x="1200" 
d="M1126 1505v-8l-684 -1270h537l170 -227h-1104v8l688 1270h-655v227h1048z" />
    <glyph glyph-name="braceleft" unicode="{" 
 />
    <glyph glyph-name="bar" unicode="|" 
 />
    <glyph glyph-name="braceright" unicode="}" 
 />
    <glyph glyph-name="asciitilde" unicode="~" horiz-adv-x="1219" 
d="M399 920q72 0 135.5 -27t100.5 -59.5t87 -59t97 -26.5q148 0 207 153l145 -113q-49 -124 -141 -196t-211 -72q-74 0 -135 26.5t-95 59.5t-84 59.5t-106 26.5q-147 0 -206 -153l-146 112q49 125 141.5 197t210.5 72z" />
    <glyph glyph-name="exclamdown" unicode="&#xa1;" horiz-adv-x="567" 
d="M162 -481v1065h246v-1065h-246zM285 748q-66 0 -110 43t-44 108.5t44 108.5t109.5 43t107.5 -43t42 -108.5t-43 -108.5t-106 -43z" />
    <glyph glyph-name="cent" unicode="&#xa2;" horiz-adv-x="1139" 
 />
    <glyph glyph-name="sterling" unicode="&#xa3;" 
 />
    <glyph glyph-name="currency" unicode="&#xa4;" 
 />
    <glyph glyph-name="yen" unicode="&#xa5;" horiz-adv-x="1262" 
 />
    <glyph glyph-name="brokenbar" unicode="&#xa6;" 
 />
    <glyph glyph-name="section" unicode="&#xa7;" 
 />
    <glyph glyph-name="dieresis" unicode="&#xa8;" horiz-adv-x="1024" 
 />
    <glyph glyph-name="copyright" unicode="&#xa9;" horiz-adv-x="1674" 
 />
    <glyph glyph-name="ordfeminine" unicode="&#xaa;" horiz-adv-x="648" 
 />
    <glyph glyph-name="guillemotleft" unicode="&#xab;" horiz-adv-x="944" 
 />
    <glyph glyph-name="logicalnot" unicode="&#xac;" 
 />
    <glyph glyph-name="registered" unicode="&#xae;" horiz-adv-x="1674" 
 />
    <glyph glyph-name="macron" unicode="&#xaf;" horiz-adv-x="670" 
 />
    <glyph glyph-name="degree" unicode="&#xb0;" horiz-adv-x="674" 
 />
    <glyph glyph-name="plusminus" unicode="&#xb1;" 
 />
    <glyph glyph-name="uni00B2" unicode="&#xb2;" 
 />
    <glyph glyph-name="uni00B3" unicode="&#xb3;" 
 />
    <glyph glyph-name="acute" unicode="&#xb4;" horiz-adv-x="641" 
d="M594 1458l-334 -280h-229l278 280h285z" />
    <glyph glyph-name="mu" unicode="&#xb5;" horiz-adv-x="1180" 
 />
    <glyph glyph-name="paragraph" unicode="&#xb6;" horiz-adv-x="1024" 
 />
    <glyph glyph-name="periodcentered" unicode="&#xb7;" horiz-adv-x="508" 
 />
    <glyph glyph-name="periodcentered" unicode="&#x2219;" horiz-adv-x="508" 
 />
    <glyph glyph-name="cedilla" unicode="&#xb8;" horiz-adv-x="1024" 
 />
    <glyph glyph-name="uni00B9" unicode="&#xb9;" 
 />
    <glyph glyph-name="ordmasculine" unicode="&#xba;" horiz-adv-x="718" 
 />
    <glyph glyph-name="guillemotright" unicode="&#xbb;" horiz-adv-x="944" 
 />
    <glyph glyph-name="onequarter" unicode="&#xbc;" horiz-adv-x="1708" 
 />
    <glyph glyph-name="onehalf" unicode="&#xbd;" horiz-adv-x="1964" 
 />
    <glyph glyph-name="threequarters" unicode="&#xbe;" horiz-adv-x="1708" 
 />
    <glyph glyph-name="questiondown" unicode="&#xbf;" horiz-adv-x="1038" 
d="M532 -508q-202 0 -332 120t-130 300q0 98 34.5 173t85 120t100.5 85t85 93t35 123v78h247v-111q0 -88 -33.5 -155.5t-82.5 -110.5t-97.5 -83t-82 -92t-33.5 -118q0 -92 58 -145.5t149 -53.5q186 0 219 195l243 -41q-82 -377 -465 -377zM532.5 748q-65.5 0 -108.5 43
t-43 108.5t43 108.5t108.5 43t108.5 -43t43 -108.5t-43 -108.5t-108.5 -43z" />
    <glyph glyph-name="Agrave" unicode="&#xc0;" horiz-adv-x="1540" 
 />
    <glyph glyph-name="Aacute" unicode="&#xc1;" horiz-adv-x="1454" 
d="M731 1532l709 -1532h-279l-119 272h-630l-119 -272h-279l709 1532h8zM727 1006l-227 -523h454zM1103 1868l-334 -280h-229l278 280h285z" />
    <glyph glyph-name="Acircumflex" unicode="&#xc2;" horiz-adv-x="1540" 
 />
    <glyph glyph-name="Atilde" unicode="&#xc3;" horiz-adv-x="1540" 
 />
    <glyph glyph-name="Adieresis" unicode="&#xc4;" horiz-adv-x="1540" 
 />
    <glyph glyph-name="Aring" unicode="&#xc5;" horiz-adv-x="1540" 
 />
    <glyph glyph-name="AE" unicode="&#xc6;" horiz-adv-x="2118" 
 />
    <glyph glyph-name="Ccedilla" unicode="&#xc7;" horiz-adv-x="1399" 
 />
    <glyph glyph-name="Egrave" unicode="&#xc8;" horiz-adv-x="1151" 
 />
    <glyph glyph-name="Eacute" unicode="&#xc9;" horiz-adv-x="1196" 
d="M1110 1505v-235h-694v-396h606v-223h-606v-415h600l110 -236h-966v1505h950zM1019 1868l-334 -280h-229l278 280h285z" />
    <glyph glyph-name="Ecircumflex" unicode="&#xca;" horiz-adv-x="1151" 
 />
    <glyph glyph-name="Edieresis" unicode="&#xcb;" horiz-adv-x="1151" 
 />
    <glyph glyph-name="Igrave" unicode="&#xcc;" horiz-adv-x="657" 
 />
    <glyph glyph-name="Iacute" unicode="&#xcd;" horiz-adv-x="575" 
d="M416 1505v-1505h-256v1505h256zM663 1868l-334 -280h-229l278 280h285z" />
    <glyph glyph-name="Icircumflex" unicode="&#xce;" horiz-adv-x="657" 
 />
    <glyph glyph-name="Idieresis" unicode="&#xcf;" horiz-adv-x="657" 
 />
    <glyph glyph-name="Eth" unicode="&#xd0;" horiz-adv-x="1518" 
 />
    <glyph glyph-name="Ntilde" horiz-adv-x="1501" 
d="M1341 1505v-1532h-8l-917 961v-934h-256v1532h8l917 -959v932h256zM536 1900q72 0 135.5 -27t100.5 -59.5t87 -59t97 -26.5q148 0 207 153l145 -113q-49 -124 -141 -196t-211 -72q-74 0 -135 26.5t-95 59.5t-84 59.5t-106 26.5q-147 0 -206 -153l-146 112
q49 125 141.5 197t210.5 72z" />
    <glyph glyph-name="Ograve" unicode="&#xd2;" horiz-adv-x="1614" 
 />
    <glyph glyph-name="Oacute" unicode="&#xd3;" horiz-adv-x="1659" 
d="M829.5 1532q329.5 0 547.5 -222.5t218 -557.5q0 -338 -218 -558.5t-548 -220.5q-331 0 -548.5 220.5t-217.5 558.5q0 335 218.5 557.5t548 222.5zM829 1296q-223 0 -364 -153.5t-141 -391t141 -390t364 -152.5q222 0 364 152.5t142 390t-142 391t-364 153.5zM1205 1868
l-334 -280h-229l278 280h285z" />
    <glyph glyph-name="Ocircumflex" unicode="&#xd4;" horiz-adv-x="1614" 
 />
    <glyph glyph-name="Otilde" unicode="&#xd5;" horiz-adv-x="1614" 
 />
    <glyph glyph-name="Odieresis" unicode="&#xd6;" horiz-adv-x="1614" 
 />
    <glyph glyph-name="multiply" unicode="&#xd7;" 
 />
    <glyph glyph-name="Oslash" unicode="&#xd8;" horiz-adv-x="1614" 
 />
    <glyph glyph-name="Ugrave" unicode="&#xd9;" horiz-adv-x="1501" 
 />
    <glyph glyph-name="Uacute" unicode="&#xda;" horiz-adv-x="1415" 
d="M1274 1505v-970q0 -259 -146.5 -410.5t-418.5 -151.5q-275 0 -421.5 150.5t-146.5 411.5v970h256v-954q0 -158 80 -250t232 -92q149 0 229 92t80 250v954h256zM1083 1868l-334 -280h-229l278 280h285z" />
    <glyph glyph-name="Ucircumflex" unicode="&#xdb;" horiz-adv-x="1501" 
 />
    <glyph glyph-name="Udieresis" unicode="&#xdc;" horiz-adv-x="1501" 
 />
    <glyph glyph-name="Yacute" unicode="&#xdd;" horiz-adv-x="1233" 
 />
    <glyph glyph-name="Thorn" unicode="&#xde;" horiz-adv-x="1120" 
 />
    <glyph glyph-name="germandbls" unicode="&#xdf;" horiz-adv-x="1251" 
 />
    <glyph glyph-name="agrave" unicode="&#xe0;" horiz-adv-x="922" 
 />
    <glyph glyph-name="aacute" unicode="&#xe1;" horiz-adv-x="1454" 
d="M731 1532l709 -1532h-279l-119 272h-630l-119 -272h-279l709 1532h8zM727 1006l-227 -523h454zM1103 1868l-334 -280h-230l279 280h285z" />
    <glyph glyph-name="acircumflex" unicode="&#xe2;" horiz-adv-x="922" 
 />
    <glyph glyph-name="atilde" unicode="&#xe3;" horiz-adv-x="922" 
 />
    <glyph glyph-name="adieresis" unicode="&#xe4;" horiz-adv-x="922" 
 />
    <glyph glyph-name="aring" unicode="&#xe5;" horiz-adv-x="922" 
 />
    <glyph glyph-name="ae" unicode="&#xe6;" horiz-adv-x="1454" 
 />
    <glyph glyph-name="ccedilla" unicode="&#xe7;" horiz-adv-x="905" 
 />
    <glyph glyph-name="egrave" unicode="&#xe8;" horiz-adv-x="909" 
 />
    <glyph glyph-name="eacute" unicode="&#xe9;" horiz-adv-x="1196" 
d="M1110 1505v-235h-694v-396h606v-223h-606v-415h600l110 -236h-966v1505h950zM1019 1868l-334 -280h-230l279 280h285z" />
    <glyph glyph-name="ecircumflex" unicode="&#xea;" horiz-adv-x="909" 
 />
    <glyph glyph-name="edieresis" unicode="&#xeb;" horiz-adv-x="909" 
 />
    <glyph glyph-name="igrave" unicode="&#xec;" horiz-adv-x="514" 
 />
    <glyph glyph-name="iacute" unicode="&#xed;" horiz-adv-x="575" 
d="M476 1505v-1505h-256v1505h256zM723 1868l-334 -280h-229l279 280h284z" />
    <glyph glyph-name="icircumflex" unicode="&#xee;" horiz-adv-x="514" 
 />
    <glyph glyph-name="idieresis" unicode="&#xef;" horiz-adv-x="514" 
 />
    <glyph glyph-name="eth" unicode="&#xf0;" horiz-adv-x="1139" 
 />
    <glyph glyph-name="ntilde" unicode="&#xf1;" horiz-adv-x="1501" 
d="M1341 1505v-1532h-8l-917 961v-934h-256v1532h8l917 -959v932h256zM536 1900q72 0 135.5 -27t100.5 -59.5t87 -59t97 -26.5q148 0 207 153l145 -113q-49 -124 -141 -196t-211 -72q-74 0 -135 26.5t-95 59.5t-84 59.5t-106 26.5q-147 0 -206 -153l-146 112
q49 125 141.5 197t210.5 72z" />
    <glyph glyph-name="ograve" unicode="&#xf2;" horiz-adv-x="1010" 
 />
    <glyph glyph-name="oacute" unicode="&#xf3;" horiz-adv-x="1659" 
d="M829.5 1532q329.5 0 547.5 -222.5t218 -557.5q0 -338 -218 -558.5t-548 -220.5q-331 0 -548.5 220.5t-217.5 558.5q0 335 218.5 557.5t548 222.5zM829 1296q-223 0 -364 -153.5t-141 -391t141 -390t364 -152.5q222 0 364 152.5t142 390t-142 391t-364 153.5zM1205 1868
l-334 -280h-229l278 280h285z" />
    <glyph glyph-name="ocircumflex" unicode="&#xf4;" horiz-adv-x="1010" 
 />
    <glyph glyph-name="otilde" unicode="&#xf5;" horiz-adv-x="1010" 
 />
    <glyph glyph-name="odieresis" unicode="&#xf6;" horiz-adv-x="1010" 
 />
    <glyph glyph-name="divide" unicode="&#xf7;" 
 />
    <glyph glyph-name="oslash" unicode="&#xf8;" horiz-adv-x="1010" 
 />
    <glyph glyph-name="ugrave" unicode="&#xf9;" horiz-adv-x="1059" 
 />
    <glyph glyph-name="uacute" unicode="&#xfa;" horiz-adv-x="1415" 
d="M1274 1505v-970q0 -259 -146.5 -410.5t-418.5 -151.5q-275 0 -421.5 150.5t-146.5 411.5v970h256v-954q0 -158 80 -250t232 -92q149 0 229 92t80 250v954h256zM1083 1868l-334 -280h-229l278 280h285z" />
    <glyph glyph-name="ucircumflex" unicode="&#xfb;" horiz-adv-x="1059" 
 />
    <glyph glyph-name="udieresis" unicode="&#xfc;" horiz-adv-x="1059" 
 />
    <glyph glyph-name="yacute" unicode="&#xfd;" horiz-adv-x="868" 
 />
    <glyph glyph-name="thorn" unicode="&#xfe;" horiz-adv-x="1010" 
 />
    <glyph glyph-name="ydieresis" unicode="&#xff;" horiz-adv-x="868" 
 />
    <glyph glyph-name="dotlessi" unicode="&#x131;" horiz-adv-x="514" 
 />
    <glyph glyph-name="circumflex" unicode="&#x2c6;" horiz-adv-x="1024" 
 />
    <glyph glyph-name="caron" unicode="&#x2c7;" horiz-adv-x="1024" 
 />
    <glyph glyph-name="uni02C9" unicode="&#x2c9;" horiz-adv-x="1024" 
 />
    <glyph glyph-name="breve" unicode="&#x2d8;" horiz-adv-x="1024" 
 />
    <glyph glyph-name="dotaccent" unicode="&#x2d9;" horiz-adv-x="1024" 
 />
    <glyph glyph-name="ring" unicode="&#x2da;" horiz-adv-x="1024" 
 />
    <glyph glyph-name="ogonek" unicode="&#x2db;" horiz-adv-x="1024" 
 />
    <glyph glyph-name="tilde" unicode="&#x2dc;" horiz-adv-x="1024" 
 />
    <glyph glyph-name="hungarumlaut" unicode="&#x2dd;" horiz-adv-x="1024" 
 />
    <glyph glyph-name="endash" unicode="&#x2013;" horiz-adv-x="1108" 
 />
    <glyph glyph-name="emdash" unicode="&#x2014;" horiz-adv-x="2048" 
 />
    <glyph glyph-name="quoteleft" unicode="&#x2018;" horiz-adv-x="557" 
 />
    <glyph glyph-name="quoteright" unicode="&#x2019;" horiz-adv-x="557" 
 />
    <glyph glyph-name="quotesinglbase" unicode="&#x201a;" horiz-adv-x="557" 
 />
    <glyph glyph-name="quotedblleft" unicode="&#x201c;" horiz-adv-x="910" 
 />
    <glyph glyph-name="quotedblright" unicode="&#x201d;" horiz-adv-x="910" 
 />
    <glyph glyph-name="quotedblbase" unicode="&#x201e;" horiz-adv-x="910" 
 />
    <glyph glyph-name="dagger" unicode="&#x2020;" 
 />
    <glyph glyph-name="daggerdbl" unicode="&#x2021;" 
 />
    <glyph glyph-name="bullet" unicode="&#x2022;" horiz-adv-x="1024" 
 />
    <glyph glyph-name="ellipsis" unicode="&#x2026;" horiz-adv-x="2048" 
 />
    <glyph glyph-name="guilsinglleft" unicode="&#x2039;" horiz-adv-x="631" 
 />
    <glyph glyph-name="guilsinglright" unicode="&#x203a;" horiz-adv-x="631" 
 />
    <glyph glyph-name="fraction" unicode="&#x2044;" horiz-adv-x="342" 
 />
    <glyph glyph-name="fraction" unicode="&#x2215;" horiz-adv-x="342" 
 />
    <glyph glyph-name="franc" unicode="&#x20a3;" 
 />
    <glyph glyph-name="lira" unicode="&#x20a4;" 
 />
    <glyph glyph-name="peseta" unicode="&#x20a7;" horiz-adv-x="2028" 
 />
    <glyph glyph-name="Euro" unicode="&#x20ac;" 
 />
    <glyph glyph-name="uni2116" unicode="&#x2116;" horiz-adv-x="2271" 
 />
    <glyph glyph-name="trademark" unicode="&#x2122;" horiz-adv-x="1497" 
 />
    <glyph glyph-name="partialdiff" unicode="&#x2202;" 
 />
    <glyph glyph-name="Delta" unicode="&#x2206;" horiz-adv-x="1081" 
 />
    <glyph glyph-name="product" unicode="&#x220f;" horiz-adv-x="1515" 
 />
    <glyph glyph-name="summation" unicode="&#x2211;" horiz-adv-x="1206" 
 />
    <glyph glyph-name="minus" unicode="&#x2212;" 
 />
    <glyph glyph-name="radical" unicode="&#x221a;" 
 />
    <glyph glyph-name="infinity" unicode="&#x221e;" 
 />
    <glyph glyph-name="integral" unicode="&#x222b;" horiz-adv-x="665" 
 />
    <glyph glyph-name="approxequal" unicode="&#x2248;" 
 />
    <glyph glyph-name="lessequal" unicode="&#x2264;" 
 />
    <glyph glyph-name="greaterequal" unicode="&#x2265;" 
 />
    <glyph glyph-name="uniF001" unicode="&#xf001;" horiz-adv-x="1073" 
 />
    <glyph glyph-name="uniF001" unicode="&#xfb01;" horiz-adv-x="1073" 
 />
    <glyph glyph-name="uniF002" unicode="&#xf002;" horiz-adv-x="1081" 
 />
    <glyph glyph-name="uniF002" unicode="&#xfb02;" horiz-adv-x="1081" 
 />
  </font>
</defs>
</svg>
